<?xml version="1.0" encoding="UTF-8" standalone="no"?>
<!DOCTYPE svg PUBLIC "-//W3C//DTD SVG 1.1//EN"
"http://www.w3.org/Graphics/SVG/1.1/DTD/svg11.dtd">


<!-- Page 1 -->
<svg x="0" y="0" width="770" height="495" viewBox="0 0 770 495" version="1.1" xmlns="http://www.w3.org/2000/svg" xmlns:xlink="http://www.w3.org/1999/xlink"
style="display: block;margin-left: auto;margin-right: auto;">
<defs>
<clipPath id="c0_1"><path d="M59.1,444.9V35.7H347.6V444.9Z" /></clipPath>
<clipPath id="c1_1"><path d="M59.1,35.7V8.4H347.6V35.7Z" /></clipPath>

<style type="text/css"><![CDATA[
text { white-space: pre; }
path, image { pointer-events: none; }

.s1_1{
font-size: 15.28px;
font-family: Helvetica, Arial, sans-serif;
fill: #000000;
}
.s2_1{
font-size: 13.75px;
font-family: Helvetica, Arial, sans-serif;
fill: #1A1A1A;
}
.s3_1{
font-size: 13.75px;
font-family: Helvetica, Arial, sans-serif;
fill: #4D4D4D;
}
.s4_1{
font-size: 16.81px;
font-family: Helvetica, Arial, sans-serif;
fill: #000000;
}
.s5_1{
font-size: 13.75px;
font-family: Helvetica, Arial, sans-serif;
fill: #000000;
}

.g0_1{
fill: #FFFFFF;
stroke: #FFFFFF;
stroke-width: 1.6347224;
stroke-linecap: round;
stroke-linejoin: round;
}
.g1_1{
fill: #EBEBEB;
}
.g2_1{
fill: none;
stroke: #FFFFFF;
stroke-width: 0.8097222;
stroke-linecap: butt;
stroke-linejoin: round;
}
.g3_1{
fill: none;
stroke: #FFFFFF;
stroke-width: 1.6347224;
stroke-linecap: butt;
stroke-linejoin: round;
}
.g4_1{
fill: #00BFC4;
}
.g5_1{
fill: #F8766D;
}
.g6_1{
fill: #D9D9D9;
}
.g7_1{
fill: none;
stroke: #333333;
stroke-width: 1.6347224;
stroke-linecap: butt;
stroke-linejoin: round;
}
.g8_1{
fill: #FFFFFF;
}
.g9_1{
fill: #F2F2F2;
stroke: #FFFFFF;
stroke-width: 1.6347224;
stroke-linecap: round;
stroke-linejoin: round;
}

]]></style>

</defs>
<path d="M0,0
L0,495
L770,495
L770,0 Z " 
fill="#FFFFFF" stroke="none" />
<path d="M0,495H770V0H0V495Z" class="g0_1" />
<g clip-path="url(#c0_1)">
<path d="M59.1,444.9H347.6V35.7H59.1V444.9Z" class="g1_1" />
<path d="M59.1,377.8H347.6M59.1,280.8H347.6M59.1,183.8H347.6M59.1,86.8H347.6" class="g2_1" />
<path d="M59.1,426.3H347.6M59.1,329.3H347.6M59.1,232.3H347.6M59.1,135.3H347.6M59.1,38.3H347.6M77.9,444.9V35.7m31.4,409.2V35.7m31.3,409.2V35.7M172,444.9V35.7m31.4,409.2V35.7m31.3,409.2V35.7m31.4,409.2V35.7m31.3,409.2V35.7m31.4,409.2V35.7" class="g3_1" />
</g>
<path d="M77.9,426.3H92.1V354.6H77.9v71.7Z" class="g4_1" />
<path d="M63.8,426.3H77.9V340.9H63.8v85.4Z" class="g5_1" />
<path d="M109.3,426.3h14.1v-73H109.3v73Z" class="g4_1" />
<path d="M95.2,426.3h14.1V317.9H95.2V426.3Z" class="g5_1" />
<path d="M140.6,426.3h14.2V350.7H140.6v75.6Z" class="g4_1" />
<path d="M126.5,426.3h14.2v-151H126.5v151Z" class="g5_1" />
<path d="M172,426.3h14.1V346.4H172v79.9Z" class="g4_1" />
<path d="M157.9,426.3H172v-195H157.9v195Z" class="g5_1" />
<path d="M203.4,426.3h14.1V338.8H203.4v87.5Z" class="g4_1" />
<path d="M189.3,426.3h14.1V159.1H189.3V426.3Z" class="g5_1" />
<path d="M234.7,426.3h14.1v-102H234.7v102Z" class="g4_1" />
<path d="M220.6,426.3h14.1V55.6H220.6V426.3Z" class="g5_1" />
<path d="M266.1,426.3h14.1V317H266.1V426.3Z" class="g4_1" />
<path d="M252,426.3h14.1V75.3H252v351Z" class="g5_1" />
<path d="M297.4,426.3h14.2V312.4H297.4V426.3Z" class="g4_1" />
<path d="M283.3,426.3h14.1V109.1H283.3V426.3Z" class="g5_1" />
<path d="M328.8,426.3h14.1V323.1H328.8V426.3Z" class="g4_1" />
<path d="M314.7,426.3h14.1V318.4H314.7V426.3Z" class="g5_1" />
<text x="63" y="340" class="s1_1">1.19</text>
<text x="94" y="317" class="s1_1">1.48</text>
<text x="125" y="275" class="s1_1">2.00</text>
<text x="157" y="242" class="s1_1">2.44</text>
<text x="188" y="170" class="s1_1">3.05</text>
<text x="219" y="66" class="s1_1">3.63</text>
<text x="251" y="86" class="s1_1">3.21</text>
<text x="282" y="120" class="s1_1">2.79</text>
<text x="313" y="318" class="s1_1">1.05</text>
<path d="M356,444.9H644.5V35.7H356V444.9Z" class="g1_1" />
<path d="M356,377.8H644.5M356,280.8H644.5M356,183.8H644.5M356,86.8H644.5" class="g2_1" />
<path d="M356,426.3H644.5M356,329.3H644.5M356,232.3H644.5M356,135.3H644.5M356,38.3H644.5M374.8,444.9V35.7m31.3,409.2V35.7m31.4,409.2V35.7m31.4,409.2V35.7m31.3,409.2V35.7m31.4,409.2V35.7m31.3,409.2V35.7m31.4,409.2V35.7m31.4,409.2V35.7" class="g3_1" />
<path d="M374.8,426.3h14.1V355H374.8v71.3Z" class="g4_1" />
<path d="M360.7,426.3h14.1V339.2H360.7v87.1Z" class="g5_1" />
<path d="M406.1,426.3h14.2V354.2H406.1v72.1Z" class="g4_1" />
<path d="M392,426.3h14.2V317.7H392V426.3Z" class="g5_1" />
<path d="M437.5,426.3h14.1V352.7H437.5v73.6Z" class="g4_1" />
<path d="M423.4,426.3h14.1V277.4H423.4V426.3Z" class="g5_1" />
<path d="M468.9,426.3H483V350.6H468.9v75.7Z" class="g4_1" />
<path d="M454.8,426.3h14.1V233.4H454.8V426.3Z" class="g5_1" />
<path d="M500.2,426.3h14.1V347.6H500.2v78.7Z" class="g4_1" />
<path d="M486.1,426.3h14.1V165.5H486.1V426.3Z" class="g5_1" />
<path d="M531.6,426.3h14.1V342.5H531.6v83.8Z" class="g4_1" />
<path d="M517.5,426.3h14.1V54.3H517.5v372Z" class="g5_1" />
<path d="M562.9,426.3h14.2v-85H562.9v85Z" class="g4_1" />
<path d="M548.8,426.3h14.1V70.6H548.8V426.3Z" class="g5_1" />
<path d="M594.3,426.3h14.1v-85H594.3v85Z" class="g4_1" />
<path d="M580.2,426.3h14.1V106.9H580.2V426.3Z" class="g5_1" />
<path d="M625.7,426.3h14.1V362.5H625.7v63.8Z" class="g4_1" />
<path d="M611.5,426.3h14.2V350.1H611.5v76.2Z" class="g5_1" />
<text x="359" y="339" class="s1_1">1.22</text>
<text x="391" y="317" class="s1_1">1.51</text>
<text x="422" y="277" class="s1_1">2.02</text>
<text x="453" y="244" class="s1_1">2.55</text>
<text x="485" y="176" class="s1_1">3.31</text>
<text x="516" y="65" class="s1_1">4.44</text>
<text x="548" y="81" class="s1_1">4.19</text>
<text x="579" y="117" class="s1_1">3.76</text>
<text x="610" y="350" class="s1_1">1.19</text>
<g clip-path="url(#c1_1)">
<path d="M59.1,35.7H347.6V8.4H59.1V35.7Z" class="g6_1" />
</g>
<text x="147" y="26" class="s2_1">Int (32-bit integer)</text>
<path d="M356,35.7H644.5V8.4H356V35.7Z" class="g6_1" />
<text x="442" y="26" dx="0,0,-0.3,0,0,0,0,0,0,0,0,0,0,0,0,0,0,0,0" class="s2_1">Raw (8-bit integer)</text>
<path d="M77.9,449.1v-4.2m31.4,4.2v-4.2m31.3,4.2v-4.2m31.4,4.2v-4.2m31.4,4.2v-4.2m31.3,4.2v-4.2m31.4,4.2v-4.2m31.3,4.2v-4.2m31.4,4.2v-4.2" class="g7_1" />
<text x="64" y="462" dx="0,0,0,0,0,0.8,0,0,0,0,0.8,0,0,0,0,4.6,0,0" class="s3_1">1/64 1/32 1/16 1/8</text>
<text x="193" y="462" class="s3_1">1/4</text>
<text x="225" y="462" class="s3_1">1/2</text>
<text x="256" y="462" class="s3_1">2/3</text>
<text x="287" y="462" dx="0,0,0,0,0.4,0,0,0" class="s3_1">3/4 100%</text>
<path d="M374.8,449.1v-4.2m31.3,4.2v-4.2m31.4,4.2v-4.2m31.4,4.2v-4.2m31.3,4.2v-4.2m31.4,4.2v-4.2m31.3,4.2v-4.2m31.4,4.2v-4.2m31.4,4.2v-4.2" class="g7_1" />
<text x="361" y="462" dx="0,0,0,0,0,0.8,0,0,0,0,0.8,0,0,0,0,4.6,0,0" class="s3_1">1/64 1/32 1/16 1/8</text>
<text x="490" y="462" class="s3_1">1/4</text>
<text x="522" y="462" class="s3_1">1/2</text>
<text x="553" y="462" class="s3_1">2/3</text>
<text x="584" y="462" dx="0,0,0,0,0.4,0,0,0" class="s3_1">3/4 100%</text>
<text x="43" y="431" class="s3_1">0</text>
<text x="36" y="334" class="s3_1">25</text>
<text x="36" y="237" class="s3_1">50</text>
<text x="36" y="140" class="s3_1">75</text>
<text x="28" y="43" class="s3_1">100</text>
<path d="M54.9,426.3h4.2m-4.2,-97h4.2m-4.2,-97h4.2m-4.2,-97h4.2m-4.2,-97h4.2" class="g7_1" />
<text x="121" y="482" dx="0,0,-0.2,0,0,0,0,0,0,0,0,0,0,0,0,0,0,0,0,0,0,0,0,0,0,0,0,0,0,0,0,0,0,0,0,0,0,0,0,0,0,0,0,0,0,0,0,0,0,0,0,0,0,0,-0.3,0,0" class="s4_1">Fraction of selected random samples on chromosome 22</text>
<text transform="matrix(0, -1, 1, 0, 20, 317)" dx="0,0,0,0,0,0,0,0,0,0,0,0,0,0,0,-0.2,0,0,0,0" class="s4_1">Runtime (in minutes)</text>
<path d="M661.2,287.3H761.6v-94H661.2v94Z" class="g8_1" />
<text x="669" y="215" class="s4_1">Bioconductor</text>
<path d="M669.6,252.5H696V226.1H669.6v26.4Z" class="g9_1" />
<path d="M670.7,251.4h24.2V227.2H670.7v24.2Z" class="g5_1" />
<path d="M669.6,278.9H696V252.5H669.6v26.4Z" class="g9_1" />
<path d="M670.7,277.8h24.2V253.6H670.7v24.2Z" class="g4_1" />
<text x="704" y="244" class="s5_1">BioC3.4</text>
<text x="704" y="270" class="s5_1">BioC3.8</text>

</svg>
